<svg width="78" height="78" viewBox="0 0 78 78" fill="none" xmlns="http://www.w3.org/2000/svg">
<path opacity="0.21" fill-rule="evenodd" clip-rule="evenodd" d="M0.000488281 39.1428V54.7143C0.000488281 67.4168 10.2979 77.7143 23.0005 77.7143H38.5719H54.1433C66.8459 77.7143 77.1433 67.4168 77.1433 54.7143V39.1428V23.5714C77.1433 10.8689 66.8459 0.571411 54.1433 0.571411H38.5719H23.0005C10.2979 0.571411 0.000488281 10.8689 0.000488281 23.5714V39.1428Z" fill="#4AD991"/>
<path d="M24.5718 53.1429H54.5718C55.6763 53.1429 56.5718 54.0383 56.5718 55.1429C56.5718 56.2475 55.6763 57.1429 54.5718 57.1429H22.5718C21.4672 57.1429 20.5718 56.2475 20.5718 55.1429V23.1429C20.5718 22.0383 21.4672 21.1429 22.5718 21.1429C23.6763 21.1429 24.5718 22.0383 24.5718 23.1429V53.1429Z" fill="#4AD991"/>
<path opacity="0.5" d="M32.0309 44.5108C31.2754 45.3166 30.0097 45.3574 29.2039 44.602C28.3981 43.8465 28.3572 42.5808 29.1127 41.775L36.6127 33.775C37.3433 32.9957 38.5574 32.9281 39.37 33.6215L45.2895 38.6728L53.002 28.9036C53.6865 28.0367 54.9441 27.8887 55.8111 28.5731C56.678 29.2576 56.826 30.5152 56.1415 31.3822L47.1416 42.7822C46.4386 43.6726 45.1365 43.8007 44.2735 43.0643L38.2254 37.9032L32.0309 44.5108Z" fill="#4AD991"/>
</svg>
