<svg width="78" height="78" viewBox="0 0 78 78" fill="none" xmlns="http://www.w3.org/2000/svg">
<path opacity="0.3" fill-rule="evenodd" clip-rule="evenodd" d="M0.428711 39.1428V54.7143C0.428711 67.4168 10.7262 77.7143 23.4287 77.7143H39.0001H54.5716C67.2741 77.7143 77.5716 67.4168 77.5716 54.7143V39.1428V23.5714C77.5716 10.8689 67.2741 0.571411 54.5716 0.571411H39.0001H23.4287C10.7262 0.571411 0.428711 10.8689 0.428711 23.5714V39.1428Z" fill="#FF9066"/>
<path opacity="0.78" fill-rule="evenodd" clip-rule="evenodd" d="M37.2498 31.0509C37.2699 30.7904 37.4871 30.5892 37.7484 30.5892H38.5471C38.804 30.5892 39.0191 30.7839 39.0447 31.0395L39.8568 39.1607L45.6048 42.4453C45.7606 42.5343 45.8568 42.7 45.8568 42.8794V43.6489C45.8568 43.9786 45.5433 44.218 45.2252 44.1313L36.8269 41.8408C36.5955 41.7777 36.4415 41.5592 36.4599 41.3201L37.2498 31.0509Z" fill="#FF9066"/>
<path opacity="0.901274" fill-rule="evenodd" clip-rule="evenodd" d="M29.4599 19.6195C29.1958 19.3048 28.6859 19.4253 28.5905 19.8249L26.38 29.0925C26.3023 29.4181 26.5604 29.7266 26.8946 29.7077L36.4283 29.1674C36.8392 29.1442 37.0476 28.6621 36.783 28.3469L34.2837 25.3683C35.7813 24.8565 37.3694 24.5892 39 24.5892C47.0476 24.5892 53.5714 31.1131 53.5714 39.1607C53.5714 47.2082 47.0476 53.7321 39 53.7321C30.9524 53.7321 24.4286 47.2082 24.4286 39.1607C24.4286 37.8097 24.6115 36.4865 24.9682 35.2147L21.6671 34.2888C21.2324 35.8383 21 37.4723 21 39.1607C21 49.1018 29.0589 57.1607 39 57.1607C48.9411 57.1607 57 49.1018 57 39.1607C57 29.2195 48.9411 21.1607 39 21.1607C36.4995 21.1607 34.1181 21.6705 31.9541 22.592L29.4599 19.6195Z" fill="#FF9066"/>
</svg>
