<svg width="78" height="78" viewBox="0 0 78 78" fill="none" xmlns="http://www.w3.org/2000/svg">
<path opacity="0.21" fill-rule="evenodd" clip-rule="evenodd" d="M0.143066 39.1428V54.7143C0.143066 67.4168 10.4405 77.7143 23.1431 77.7143H38.7145H54.2859C66.9885 77.7143 77.2859 67.4168 77.2859 54.7143V39.1428V23.5714C77.2859 10.8689 66.9885 0.571411 54.2859 0.571411H38.7145H23.1431C10.4405 0.571411 0.143066 10.8689 0.143066 23.5714V39.1428Z" fill="#8280FF"/>
<path opacity="0.587821" fill-rule="evenodd" clip-rule="evenodd" d="M26.7139 30.5714C26.7139 34.3585 29.7839 37.4286 33.571 37.4286C37.3581 37.4286 40.4282 34.3585 40.4282 30.5714C40.4282 26.7843 37.3581 23.7143 33.571 23.7143C29.7839 23.7143 26.7139 26.7843 26.7139 30.5714ZM43.8571 37.4286C43.8571 40.2689 46.1597 42.5715 49 42.5715C51.8403 42.5715 54.1429 40.2689 54.1429 37.4286C54.1429 34.5883 51.8403 32.2857 49 32.2857C46.1597 32.2857 43.8571 34.5883 43.8571 37.4286Z" fill="#8280FF"/>
<path fill-rule="evenodd" clip-rule="evenodd" d="M33.5431 40.8571C25.4492 40.8571 18.8087 45.0169 18.1442 53.1986C18.108 53.6443 18.9603 54.5714 19.3902 54.5714H47.7088C48.9966 54.5714 49.0166 53.5351 48.9966 53.2C48.4943 44.7883 41.7509 40.8571 33.5431 40.8571ZM58.3527 54.5714H51.7429C51.7429 50.7126 50.4679 47.1517 48.3163 44.2867C54.1559 44.3507 58.924 47.3032 59.2828 53.5428C59.2972 53.7941 59.2828 54.5714 58.3527 54.5714Z" fill="#8280FF"/>
</svg>
