<svg width="78" height="78" viewBox="0 0 78 78" fill="none" xmlns="http://www.w3.org/2000/svg">
<path opacity="0.21" fill-rule="evenodd" clip-rule="evenodd" d="M0.571777 39.1428V54.7143C0.571777 67.4168 10.8692 77.7143 23.5718 77.7143H39.1432H54.7146C67.4172 77.7143 77.7146 67.4168 77.7146 54.7143V39.1428V23.5714C77.7146 10.8689 67.4172 0.571411 54.7146 0.571411H39.1432H23.5718C10.8692 0.571411 0.571777 10.8689 0.571777 23.5714V39.1428Z" fill="#FEC53D"/>
<path fill-rule="evenodd" clip-rule="evenodd" d="M19.8574 31.8354L36.4438 41.4116C36.6224 41.5147 36.8096 41.5892 37.0003 41.6364V60.2089L21.0404 50.7638C20.3071 50.3299 19.8574 49.5411 19.8574 48.6891V31.8354ZM58.4286 31.5809V48.6891C58.4286 49.5411 57.9789 50.3299 57.2457 50.7638L41.2858 60.2089V41.4737C41.3247 41.4543 41.3632 41.4336 41.4014 41.4116L58.4286 31.5809Z" fill="#FEC53D"/>
<path opacity="0.499209" fill-rule="evenodd" clip-rule="evenodd" d="M20.3789 27.1875C20.5815 26.9317 20.8372 26.7155 21.1353 26.5567L38.0103 17.5687C38.7188 17.1914 39.5685 17.1914 40.2769 17.5687L57.1519 26.5567C57.3817 26.6791 57.5863 26.8356 57.7608 27.0181L39.2592 37.7C39.1375 37.7703 39.0254 37.8507 38.9232 37.9395C38.8209 37.8507 38.7088 37.7703 38.5871 37.7L20.3789 27.1875Z" fill="#FEC53D"/>
</svg>
